<?xml version="1.0" standalone="no"?>
<!DOCTYPE svg PUBLIC "-//W3C//DTD SVG 20010904//EN"
 "http://www.w3.org/TR/2001/REC-SVG-20010904/DTD/svg10.dtd">
<svg version="1.0" xmlns="http://www.w3.org/2000/svg"
 width="1920.000000pt" height="1080.000000pt" viewBox="0 0 1920.000000 1080.000000"
 preserveAspectRatio="xMidYMid meet">

<g transform="translate(0.000000,1080.000000) scale(0.100000,-0.100000)"
fill="#000000" stroke="none">
<path d="M7620 9093 l-769 -758 -1 -664 0 -663 23 6 c228 65 649 155 987 210
118 20 230 38 248 41 l32 6 0 258 0 259 395 386 396 386 692 0 692 0 388 -388
387 -387 0 -256 0 -255 148 -23 c173 -26 470 -81 632 -117 113 -25 458 -109
493 -120 16 -5 17 31 17 653 l0 658 -763 763 -762 762 -1233 0 -1233 0 -769
-757z"/>
<path d="M9133 7578 l-143 -142 0 -952 0 -952 154 -146 154 -146 261 0 261 0
0 -865 0 -865 -210 0 -210 0 0 580 0 580 -205 0 -205 0 0 -638 0 -637 144
-138 144 -137 346 0 346 0 140 143 140 142 -7 1015 -6 1015 -145 140 -145 140
-266 5 -266 5 -3 778 -2 777 210 0 210 0 0 -500 0 -500 205 0 205 0 0 584 0
584 -144 136 -143 136 -338 0 -338 0 -144 -142z"/>
<path d="M10335 6908 c4 -106 8 -195 10 -197 3 -3 234 -30 263 -31 9 0 12
-275 12 -1340 l0 -1340 23 -5 c41 -9 389 -56 392 -53 1 2 -1 604 -4 1338 -4
734 -4 1338 -1 1342 3 3 69 -4 148 -16 78 -12 145 -20 147 -17 3 2 5 91 5 197
0 175 -2 193 -17 198 -88 25 -828 116 -946 116 l-40 0 8 -192z"/>
<path d="M8245 7034 c-49 -7 -153 -23 -231 -34 l-140 -22 -112 -147 -112 -148
0 -1319 1 -1319 100 -89 101 -89 211 41 c173 34 390 72 411 72 3 0 47 56 100
124 l95 124 2 1288 2 1288 -126 123 c-144 140 -125 134 -302 107z m38 -1081
c4 -368 7 -878 7 -1135 l0 -467 -55 -10 c-30 -6 -81 -16 -112 -22 -32 -6 -66
-13 -76 -15 -16 -5 -17 49 -15 1138 l3 1143 110 16 c61 9 115 17 121 18 8 1
13 -196 17 -666z"/>
<path d="M11543 6807 l-122 -112 0 -1421 -1 -1421 163 -41 c89 -23 172 -45
185 -48 l22 -6 0 707 0 706 21 -6 c29 -9 223 -65 226 -65 2 0 3 -321 3 -714
l0 -714 48 -18 c26 -10 109 -41 185 -69 l137 -52 0 1440 0 1440 -107 193 -108
194 -50 14 c-45 13 -469 107 -477 105 -2 0 -58 -50 -125 -112z m382 -353 l105
-26 0 -454 c0 -250 -3 -454 -7 -453 -5 0 -55 13 -113 28 l-105 28 -3 451 c-1
308 1 452 8 452 6 0 58 -12 115 -26z"/>
<path d="M7280 6859 c-69 -16 -143 -34 -166 -40 l-41 -11 -6 -195 c-4 -108 -7
-823 -7 -1588 l0 -1392 190 61 190 61 0 1568 c0 1486 -1 1567 -17 1566 -10 -1
-74 -14 -143 -30z"/>
<path d="M6755 6724 c-49 -13 -134 -38 -187 -54 l-98 -31 -2 -647 -3 -647
-120 -47 c-66 -26 -123 -47 -127 -48 -5 0 -8 295 -8 655 l0 654 -177 -60 c-98
-34 -186 -65 -195 -70 -17 -9 -18 -101 -18 -1709 0 -935 3 -1700 6 -1700 3 0
20 10 36 22 17 12 105 65 197 118 l166 98 5 782 5 783 120 48 c66 27 123 48
128 49 4 0 7 -342 7 -761 0 -418 4 -759 8 -757 5 1 88 37 185 78 l177 75 0
1598 c0 878 -3 1597 -7 1596 -5 0 -48 -11 -98 -25z"/>
<path d="M12540 6504 l0 -209 150 -45 150 -45 2 -1430 3 -1430 65 -34 c36 -18
117 -63 180 -100 63 -36 118 -67 122 -69 4 -2 8 653 8 1456 0 802 2 1461 5
1464 3 3 85 -25 181 -63 96 -38 177 -69 180 -69 2 0 3 95 2 212 l-3 212 -80
34 c-133 55 -368 137 -662 228 -153 48 -284 89 -290 91 -10 4 -13 -41 -13
-203z"/>
<path d="M13718 4143 c3 -1569 7 -2161 15 -2171 6 -8 58 -50 116 -95 178 -137
487 -383 658 -524 89 -73 164 -133 167 -133 3 0 6 115 6 255 l0 254 -270 218
-270 218 0 788 c0 433 3 787 7 787 7 0 157 -83 375 -207 80 -45 149 -83 152
-83 3 0 6 110 6 243 l0 244 -142 81 c-79 44 -204 114 -278 154 l-135 74 -3
717 c-1 394 0 717 3 717 8 0 225 -110 393 -199 84 -44 155 -81 158 -81 2 0 3
102 2 227 l-3 226 -105 58 c-58 33 -172 90 -255 128 -138 63 -590 261 -597
261 -2 0 -2 -971 0 -2157z"/>
<path d="M5077 6116 c-110 -53 -239 -117 -289 -143 l-90 -48 -99 -189 -99
-189 0 -2023 0 -2024 156 -104 156 -104 282 170 c154 93 286 175 292 181 6 7
50 95 97 197 l85 185 7 1990 6 1990 -136 99 c-75 54 -144 100 -153 102 -9 3
-106 -38 -215 -90z m113 -2260 l0 -1874 -137 -94 c-76 -51 -141 -95 -145 -96
-5 -2 -7 850 -6 1893 l3 1897 135 73 c74 41 138 74 143 74 4 1 7 -842 7 -1873z"/>
<path d="M7975 3655 c-383 -88 -677 -176 -977 -292 l-148 -58 0 -401 0 -400
766 -755 767 -754 241 -6 c132 -4 689 -9 1236 -13 l995 -7 390 393 c215 216
558 562 762 768 l373 375 0 400 1 400 -117 47 c-167 68 -402 148 -593 203
-165 47 -531 135 -563 135 -17 0 -18 -22 -18 -318 l0 -318 -382 -392 -382
-392 -416 1 c-228 1 -544 5 -702 8 l-287 6 -391 383 -390 384 0 319 c0 175 -3
319 -7 318 -5 0 -75 -16 -158 -34z"/>
</g>
</svg>
